<svg width="368" height="542" viewBox="0 0 368 542" fill="none" xmlns="http://www.w3.org/2000/svg">
<g clip-path="url(#clip0_1256_4142)">
<path d="M331.108 115.626H153.986C153.116 115.625 152.283 115.279 151.668 114.664C151.053 114.049 150.707 113.216 150.706 112.346V68.4181C150.707 67.5486 151.053 66.7151 151.668 66.1003C152.283 65.4855 153.116 65.1397 153.986 65.1387H331.108C331.977 65.1397 332.811 65.4855 333.426 66.1003C334.041 66.7151 334.387 67.5486 334.388 68.4181V112.346C334.387 113.216 334.041 114.049 333.426 114.664C332.811 115.279 331.977 115.625 331.108 115.626ZM153.986 66.4504C153.464 66.451 152.964 66.6585 152.595 67.0274C152.226 67.3962 152.019 67.8964 152.018 68.4181V112.346C152.019 112.868 152.226 113.368 152.595 113.737C152.964 114.106 153.464 114.313 153.986 114.314H331.108C331.63 114.313 332.13 114.106 332.499 113.737C332.868 113.368 333.075 112.868 333.076 112.346V68.4181C333.075 67.8964 332.868 67.3963 332.499 67.0274C332.13 66.6585 331.63 66.451 331.108 66.4504L153.986 66.4504Z" fill="#3F3D56"/>
<path d="M181.508 102.055C188.887 102.055 194.869 96.0742 194.869 88.6965C194.869 81.3187 188.887 75.3379 181.508 75.3379C174.128 75.3379 168.146 81.3187 168.146 88.6965C168.146 96.0742 174.128 102.055 181.508 102.055Z" fill="#FFD099"/>
<path d="M212.366 79.791C211.775 79.791 211.209 80.0256 210.791 80.4431C210.373 80.8607 210.139 81.427 210.139 82.0174C210.139 82.6079 210.373 83.1742 210.791 83.5918C211.209 84.0093 211.775 84.2439 212.366 84.2439H317.345C317.936 84.2439 318.502 84.0093 318.92 83.5918C319.338 83.1742 319.572 82.6079 319.572 82.0174C319.572 81.427 319.338 80.8607 318.92 80.4431C318.502 80.0256 317.936 79.791 317.345 79.791H212.366Z" fill="#E6E6E6"/>
<path d="M212.366 93.1504C211.775 93.1504 211.209 93.385 210.791 93.8025C210.373 94.22 210.139 94.7863 210.139 95.3768C210.139 95.9673 210.373 96.5336 210.791 96.9511C211.209 97.3687 211.775 97.6033 212.366 97.6033H257.539C257.831 97.6038 258.121 97.5466 258.392 97.4349C258.663 97.3233 258.909 97.1594 259.116 96.9526C259.323 96.7458 259.488 96.5002 259.6 96.2298C259.712 95.9594 259.77 95.6695 259.77 95.3768C259.77 95.0841 259.712 94.7943 259.6 94.5239C259.488 94.2535 259.323 94.0079 259.116 93.8011C258.909 93.5943 258.663 93.4303 258.392 93.3187C258.121 93.2071 257.831 93.1499 257.539 93.1504H212.366Z" fill="#E6E6E6"/>
<path d="M254.213 272.21H175.492C174.622 272.209 173.789 271.863 173.174 271.248C172.559 270.633 172.213 269.8 172.212 268.93V186.961C172.213 186.092 172.559 185.258 173.174 184.643C173.789 184.029 174.622 183.683 175.492 183.682H254.213C255.082 183.683 255.916 184.029 256.531 184.643C257.146 185.258 257.492 186.092 257.493 186.961V268.93C257.492 269.8 257.146 270.633 256.531 271.248C255.916 271.863 255.082 272.209 254.213 272.21ZM175.492 184.993C174.97 184.994 174.47 185.201 174.101 185.57C173.732 185.939 173.524 186.439 173.524 186.961V268.93C173.524 269.452 173.732 269.952 174.101 270.321C174.47 270.69 174.97 270.897 175.492 270.898H254.213C254.735 270.897 255.235 270.69 255.604 270.321C255.973 269.952 256.18 269.452 256.181 268.93V186.961C256.18 186.439 255.973 185.939 255.604 185.57C255.235 185.201 254.735 184.994 254.213 184.993H175.492Z" fill="#3F3D56"/>
<path d="M192.266 200.586C191.675 200.586 191.109 200.821 190.691 201.238C190.274 201.656 190.039 202.222 190.039 202.812C190.039 203.403 190.274 203.969 190.691 204.387C191.109 204.804 191.675 205.039 192.266 205.039H237.439C238.03 205.039 238.596 204.804 239.014 204.387C239.431 203.969 239.666 203.403 239.666 202.812C239.666 202.222 239.431 201.656 239.014 201.238C238.596 200.821 238.03 200.586 237.439 200.586H192.266Z" fill="#E6E6E6"/>
<path d="M192.265 213.703C191.972 213.703 191.682 213.76 191.412 213.871C191.141 213.983 190.895 214.147 190.688 214.354C190.481 214.561 190.316 214.806 190.204 215.077C190.092 215.347 190.034 215.637 190.034 215.93C190.034 216.222 190.092 216.512 190.204 216.783C190.316 217.053 190.481 217.299 190.688 217.505C190.895 217.712 191.141 217.876 191.412 217.988C191.682 218.099 191.972 218.157 192.265 218.156H237.438C238.029 218.156 238.595 217.921 239.013 217.504C239.431 217.086 239.665 216.52 239.665 215.93C239.665 215.339 239.431 214.773 239.013 214.355C238.595 213.938 238.029 213.703 237.438 213.703H192.265Z" fill="#E6E6E6"/>
<path d="M214.852 255.306C212.08 255.306 209.37 254.484 207.065 252.944C204.759 251.404 202.963 249.216 201.902 246.655C200.841 244.094 200.563 241.276 201.104 238.558C201.645 235.839 202.98 233.342 204.94 231.382C206.901 229.422 209.398 228.087 212.117 227.547C214.836 227.006 217.655 227.283 220.216 228.344C222.777 229.405 224.966 231.201 226.507 233.506C228.047 235.81 228.869 238.52 228.869 241.292C228.865 245.007 227.387 248.569 224.759 251.197C222.131 253.824 218.568 255.302 214.852 255.306Z" fill="#FFD099"/>
<path d="M151.718 169.583C165.649 158.795 181.924 151.44 199.226 148.11C216.666 144.788 234.649 145.712 251.656 150.804C260.206 153.349 268.42 156.908 276.124 161.404C283.973 165.992 291.066 171.639 297.89 177.619C304.804 183.677 311.49 190.004 318.706 195.707C339.31 212.173 364.889 221.17 391.266 221.227C393.445 221.231 395.623 221.171 397.799 221.047C398.978 220.982 398.986 219.139 397.799 219.204C370.911 220.685 344.36 212.663 322.792 196.543C315.312 190.951 308.482 184.557 301.51 178.361C294.75 172.354 287.809 166.51 280.14 161.684C261.381 149.868 239.557 143.837 217.392 144.342C195.226 144.847 173.7 151.866 155.499 164.525C153.769 165.728 152.078 166.985 150.415 168.279C149.48 169.007 150.793 170.303 151.718 169.583Z" fill="#3F3D56"/>
<path d="M150.74 178.489C156.03 178.489 160.319 174.201 160.319 168.912C160.319 163.622 156.03 159.334 150.74 159.334C145.449 159.334 141.16 163.622 141.16 168.912C141.16 174.201 145.449 178.489 150.74 178.489Z" fill="#3F3D56"/>
<path d="M385.017 327.596H311.17L328.549 297.5C328.86 296.961 329.308 296.513 329.848 296.201C330.387 295.89 330.999 295.726 331.622 295.726C332.245 295.726 332.857 295.89 333.396 296.201C333.936 296.513 334.384 296.961 334.695 297.5L342.119 310.357L354.743 288.497C355.133 287.821 355.694 287.261 356.369 286.871C357.044 286.481 357.811 286.275 358.591 286.275C359.371 286.275 360.137 286.481 360.812 286.871C361.488 287.261 362.049 287.821 362.439 288.497L385.017 327.596Z" fill="#FFD099"/>
<path d="M385.087 327.588H306.366C305.496 327.587 304.663 327.242 304.048 326.627C303.433 326.012 303.087 325.179 303.086 324.309V280.381C303.087 279.512 303.433 278.678 304.048 278.063C304.663 277.448 305.496 277.103 306.366 277.102H385.087C385.956 277.103 386.79 277.448 387.405 278.063C388.02 278.678 388.366 279.512 388.367 280.381V324.309C388.366 325.179 388.02 326.012 387.405 326.627C386.79 327.242 385.956 327.587 385.087 327.588ZM306.366 278.413C305.844 278.414 305.344 278.621 304.975 278.99C304.606 279.359 304.398 279.859 304.398 280.381V324.309C304.398 324.831 304.606 325.331 304.975 325.7C305.344 326.069 305.844 326.276 306.366 326.277H385.087C385.609 326.276 386.109 326.069 386.478 325.7C386.847 325.331 387.054 324.831 387.055 324.309V280.381C387.054 279.859 386.847 279.359 386.478 278.99C386.109 278.621 385.609 278.414 385.087 278.413H306.366Z" fill="#3F3D56"/>
<path d="M133.215 200.729C133.215 200.729 135.538 160.526 147.599 169.661C159.659 178.796 142.332 204.458 142.332 204.458L133.215 200.729Z" fill="#FFB9B9"/>
<path d="M88.3432 319.98C88.3432 319.98 115.134 350.051 100.145 352.118C85.156 354.185 79.2598 323.789 79.2598 323.789L88.3432 319.98Z" fill="#FFB9B9"/>
<path d="M53.3835 177.642C56.746 178.526 59.7721 180.385 62.0818 182.983C64.3914 185.582 65.8817 188.805 66.3655 192.247L74.8873 252.891L86.8339 301.266C86.8339 301.266 92.8072 306.641 90.4179 309.627C88.0286 312.613 93.4045 325.155 93.4045 325.155L78.4713 329.932C78.4713 329.932 76.6793 317.391 73.6927 316.793C71.0679 316.269 41.6857 237.792 34.6033 218.781C33.6268 216.16 33.0742 214.669 33.0742 214.669C33.0742 214.669 34.2689 174.656 53.3835 177.642Z" fill="#575A89"/>
<path d="M56.111 493.895L65.2834 510.146C72.3865 525.308 66.0744 528.063 48.6584 520.547L44.6885 501.357L56.111 493.895Z" fill="#FFB9B9"/>
<path d="M60.7392 515.494C60.7392 515.494 65.0935 508.406 66.6684 509.593C68.2432 510.779 74.7391 515.92 74.7391 515.92L83.2002 524.023C83.2002 524.023 111.787 527.044 93.6222 537.059C75.4577 547.073 65.4194 538.77 65.4194 538.77C65.4194 538.77 39.9783 540.092 40.3887 532.996C40.7991 525.899 49.004 514.671 49.004 514.671C49.004 514.671 59.345 521.603 60.7392 515.494Z" fill="#2F2E41"/>
<path d="M15.4092 310.194L24.0083 414.224C24.0083 414.224 24.295 476.413 33.4674 488.449C42.6398 500.486 42.9264 506.504 42.9264 506.504L61.8445 496.76C61.8445 496.76 52.0988 480.524 54.1053 478.039C55.3421 476.462 56.2223 474.637 56.685 472.687L51.5256 408.492L61.2712 296.725L15.4092 310.194Z" fill="#2F2E41"/>
<path d="M38.9129 493.895L30.8871 515.101L12.6855 507.493L22.2881 491.602L38.9129 493.895Z" fill="#FFB9B9"/>
<path d="M25.5236 507.959C25.5236 507.959 32.3501 503.693 33.2035 505.399C34.0568 507.106 37.47 514.357 37.47 514.357L41.3099 525.022C41.3099 525.022 64.7761 539.952 44.7232 540.805C24.6703 541.658 19.5504 530.141 19.5504 530.141C19.5504 530.141 -3.06239 520.329 0.35089 514.357C3.76417 508.385 15.7105 502.191 15.7105 502.191C15.7105 502.191 21.6837 512.651 25.5236 507.959Z" fill="#2F2E41"/>
<path d="M88.2152 310.481L92.8014 406.2C92.8014 406.2 50.9523 492.749 46.3661 495.041C44.9995 495.747 43.7881 496.719 42.8035 497.9C41.8189 499.082 41.081 500.448 40.6333 501.919L15.4092 495.614L26.8747 477.273L52.0989 415.944C52.0989 415.944 56.1118 414.225 57.2583 408.493C58.4049 402.761 60.698 402.761 54.9652 401.615C49.2325 400.469 49.2325 394.737 49.2325 394.737L30.3144 307.615L88.2152 310.481Z" fill="#2F2E41"/>
<path d="M90.2116 141.056C92.2402 128.557 83.7507 116.781 71.2498 114.753C58.7489 112.725 46.9703 121.213 44.9417 133.711C42.9131 146.21 51.4026 157.986 63.9035 160.014C76.4044 162.042 88.1829 153.555 90.2116 141.056Z" fill="#FFB9B9"/>
<path d="M47.2255 138.816C47.2255 138.816 45.5057 168.048 43.2126 170.914C40.9195 173.78 67.2902 173.207 67.2902 173.207C67.2902 173.207 65.5704 148.56 67.2902 146.268C69.01 143.975 47.2255 138.816 47.2255 138.816Z" fill="#FFB9B9"/>
<path d="M89.9323 316.786C89.9323 316.786 25.1519 311.055 13.1162 316.786C13.1162 316.786 17.5469 300.352 16.4021 298.635C15.5694 297.379 17.8666 250.568 17.1455 223.565C16.7366 208.328 13.2203 193.448 23.4421 182.135C26.9213 178.293 30.8018 175.067 34.898 173.491C34.898 173.491 33.7532 162.602 39.4848 162.03C39.4848 162.03 61.274 159.733 69.2954 166.616C71.8601 168.801 73.4733 175.461 73.6443 181.199C69.6745 200.717 71.0795 222.376 74.7222 244.845C74.9452 246.272 75.1906 247.706 75.4359 249.141C79.3016 271.424 85.1447 294.398 89.9323 316.786Z" fill="#575A89"/>
<path d="M55.5973 144.139C57.5366 144.023 59.4301 144.678 61.356 144.934C68.246 145.848 75.4138 140.85 76.9352 134.069C77.0571 133.166 77.3263 132.289 77.732 131.473C78.7924 129.742 81.2074 129.412 83.1982 129.81C85.1891 130.208 87.0762 131.14 89.1037 131.246C92.2342 131.41 95.2395 129.484 96.9079 126.83C98.4845 124.093 99.1549 120.927 98.8233 117.786L97.3226 119.36C96.7128 118.07 96.4774 116.635 96.6431 115.218C95.8478 115.007 95.0115 115.002 94.2142 115.206C93.4169 115.41 92.6854 115.816 92.0896 116.383C90.7663 116.524 91.765 113.929 90.7819 113.033C90.3038 112.739 89.7339 112.632 89.1819 112.733C86.3668 112.76 84.0895 110.608 81.8711 108.875C78.0275 105.879 73.5328 103.829 68.7502 102.891C65.5714 102.271 62.1911 102.171 59.1765 103.355C56.7429 104.447 54.5465 106.005 52.7112 107.94C47.9914 112.478 43.812 117.809 41.8485 124.054C40.2522 129.17 40.207 134.643 41.7186 139.784C42.5098 142.454 44.8942 151.597 48.385 151.81C52.7712 152.078 50.1377 144.464 55.5973 144.139Z" fill="#2F2E41"/>
<path d="M65.0893 180.457L73.3048 181.337C73.3048 181.337 81.3694 196.98 80.7837 200.243C80.198 203.506 78.9226 201.525 82.5524 206.745C86.1822 211.966 96.482 225.459 97.7575 227.44C99.0329 229.421 133.804 202.896 131.642 194.949C131.642 194.949 142.624 202.826 147.329 203.874C147.329 203.874 111.494 250.862 106.501 256.876C101.507 262.889 97.4881 261.654 90.6255 258.088C83.7629 254.523 49.0449 218.96 49.0449 218.96L65.0893 180.457Z" fill="#575A89"/>
<path opacity="0.1" d="M75.436 249.141L46.8818 220.592L54.1077 218.236L74.7224 244.845C74.9454 246.272 75.1908 247.707 75.436 249.141Z" fill="black"/>
</g>
<defs>
<clipPath id="clip0_1256_4142">
<rect width="368" height="542" fill="white"/>
</clipPath>
</defs>
</svg>
